<?xml version="1.0" encoding="UTF-8" standalone="no"?>
<!-- Created with Inkscape (http://www.inkscape.org/) -->

<svg
   width="512"
   height="512"
   viewBox="0 0 512 512"
   version="1.1"
   id="svg1"
   inkscape:version="1.3.2 (091e20ef0f, 2023-11-25, custom)"
   sodipodi:docname="logo2.svg"
   xmlns:inkscape="http://www.inkscape.org/namespaces/inkscape"
   xmlns:sodipodi="http://sodipodi.sourceforge.net/DTD/sodipodi-0.dtd"
   xmlns="http://www.w3.org/2000/svg"
   xmlns:svg="http://www.w3.org/2000/svg">
  <sodipodi:namedview
     id="namedview1"
     pagecolor="#ffffff"
     bordercolor="#cccccc"
     borderopacity="1"
     inkscape:showpageshadow="0"
     inkscape:pageopacity="1"
     inkscape:pagecheckerboard="0"
     inkscape:deskcolor="#d1d1d1"
     inkscape:document-units="px"
     inkscape:zoom="1.5722656"
     inkscape:cx="184.12919"
     inkscape:cy="325.0087"
     inkscape:window-width="2536"
     inkscape:window-height="1375"
     inkscape:window-x="0"
     inkscape:window-y="0"
     inkscape:window-maximized="1"
     inkscape:current-layer="layer1" />
  <defs
     id="defs1">
    <clipPath
       clipPathUnits="userSpaceOnUse"
       id="clipPath10">
      <path
         id="path10"
         d="M 85.33392,-0.00174 A 85.333328,85.333328 0 0 0 0,85.33216 V 256 426.66783 a 85.333328,85.333328 0 0 0 85.33392,85.33043 h 170.66434 170.66787 a 85.333328,85.333328 0 0 0 85.3339,-85.33043 V 256 85.33216 a 85.333328,85.333328 0 0 0 -85.3339,-85.3339 H 255.99826 Z"
         style="stroke-width:1.77953" />
    </clipPath>
    <clipPath
       clipPathUnits="userSpaceOnUse"
       id="clipPath11">
      <path
         id="path11"
         d="M 85.33392,-0.00174 A 85.333328,85.333328 0 0 0 0,85.33216 V 256 426.66783 a 85.333328,85.333328 0 0 0 85.33392,85.33043 h 170.66434 170.66787 a 85.333328,85.333328 0 0 0 85.3339,-85.33043 V 256 85.33216 a 85.333328,85.333328 0 0 0 -85.3339,-85.3339 H 255.99826 Z"
         style="stroke-width:1.77953" />
    </clipPath>
    <clipPath
       clipPathUnits="userSpaceOnUse"
       id="clipPath12">
      <path
         id="path12"
         d="M 85.33392,-0.00174 A 85.333328,85.333328 0 0 0 0,85.33216 V 256 426.66783 a 85.333328,85.333328 0 0 0 85.33392,85.33043 h 170.66434 170.66787 a 85.333328,85.333328 0 0 0 85.3339,-85.33043 V 256 85.33216 a 85.333328,85.333328 0 0 0 -85.3339,-85.3339 H 255.99826 Z"
         style="stroke-width:1.77953" />
    </clipPath>
    <filter
       style="color-interpolation-filters:sRGB;"
       inkscape:label="Drop Shadow"
       id="filter16"
       x="-0.02"
       y="-0.02"
       width="1.0566667"
       height="1.0566667">
      <feFlood
         result="flood"
         in="SourceGraphic"
         flood-opacity="0.498039"
         flood-color="rgb(0,0,0)"
         id="feFlood15" />
      <feGaussianBlur
         result="blur"
         in="SourceGraphic"
         stdDeviation="3.000000"
         id="feGaussianBlur15" />
      <feOffset
         result="offset"
         in="blur"
         dx="6.000000"
         dy="6.000000"
         id="feOffset15" />
      <feComposite
         result="comp1"
         operator="in"
         in="flood"
         in2="offset"
         id="feComposite15" />
      <feComposite
         result="comp2"
         operator="over"
         in="SourceGraphic"
         in2="comp1"
         id="feComposite16" />
    </filter>
  </defs>
  <g
     inkscape:label="Layer 1"
     inkscape:groupmode="layer"
     id="layer1">
    <rect
       style="fill:#282828;fill-opacity:1"
       id="rect2"
       width="512"
       height="512"
       x="0"
       y="0"
       clip-path="url(#clipPath12)" />
    <g
       id="g15"
       style="filter:url(#filter16)">
      <rect
         style="fill:#4caf50;fill-opacity:1;stroke-width:0.820659"
         id="rect3"
         width="360"
         height="60"
         x="76"
         y="76"
         clip-path="url(#clipPath11)" />
      <rect
         style="fill:#4caf50;fill-opacity:1;stroke-width:0.8236"
         id="rect4"
         width="60"
         height="360"
         x="226"
         y="76"
         clip-path="url(#clipPath10)"
         inkscape:label="rect4" />
    </g>
  </g>
</svg>
